<?xml version="1.0" standalone="no"?>
<!DOCTYPE svg PUBLIC "-//W3C//DTD SVG 20010904//EN"
 "http://www.w3.org/TR/2001/REC-SVG-20010904/DTD/svg10.dtd">
<svg version="1.0" xmlns="http://www.w3.org/2000/svg"
 width="500.000000pt" height="500.000000pt" viewBox="0 0 500.000000 500.000000"
 preserveAspectRatio="xMidYMid meet">

<g transform="translate(0.000000,500.000000) scale(0.100000,-0.100000)"
fill="#000000" stroke="none">
<path d="M2210 3833 c-279 -26 -502 -123 -671 -292 -247 -247 -334 -598 -265
-1061 16 -107 32 -278 41 -440 15 -278 23 -343 56 -436 54 -158 205 -294 362
-326 95 -19 170 18 225 111 25 42 27 56 31 174 l3 129 -48 41 c-138 121 -165
151 -205 232 -68 139 -82 212 -83 425 -1 200 11 287 60 437 126 392 380 529
588 318 202 -206 300 -704 205 -1045 -42 -152 -84 -213 -249 -362 l-63 -56 6
-139 c7 -150 24 -235 63 -300 37 -63 89 -89 218 -108 60 -9 113 -18 117 -20 4
-3 42 -10 85 -15 44 -6 110 -20 147 -31 66 -20 70 -20 113 -4 52 20 119 92
135 144 6 22 9 109 7 221 -4 220 -10 238 -102 309 -97 74 -148 124 -162 158
-39 91 0 984 52 1215 22 97 68 147 93 100 5 -10 11 -199 13 -438 3 -382 5
-422 21 -447 23 -35 61 -36 83 -2 12 18 18 54 21 118 20 499 34 749 42 770 18
46 72 42 91 -7 4 -12 13 -159 19 -327 17 -479 20 -532 37 -556 20 -32 59 -30
81 4 16 25 18 67 23 455 4 366 7 430 20 438 28 18 45 5 67 -50 47 -120 72
-398 79 -890 7 -432 15 -398 -126 -506 -119 -91 -140 -125 -147 -238 -10 -160
12 -233 86 -283 64 -43 147 -23 199 46 32 44 41 73 63 198 21 126 43 185 162
438 150 319 173 424 164 760 -4 156 -11 234 -25 303 -65 297 -186 495 -382
621 -111 72 -207 94 -480 111 -209 13 -274 22 -443 61 -164 38 -315 53 -427
42z"/>
<path d="M1028 2765 c-54 -30 -74 -117 -44 -189 12 -28 20 -34 55 -39 56 -7
76 0 91 31 19 40 24 152 8 182 -16 30 -69 37 -110 15z"/>
<path d="M1052 2429 c-29 -15 -49 -34 -60 -56 -16 -33 -15 -38 5 -91 94 -255
126 -322 153 -322 41 0 58 123 41 284 -14 122 -28 166 -62 190 -29 20 -25 20
-77 -5z"/>
<path d="M3960 1883 c-61 -23 -180 -216 -180 -295 0 -51 21 -68 83 -68 74 0
116 25 151 90 25 45 29 66 30 129 1 72 -16 141 -34 141 -5 0 -14 2 -22 4 -7 3
-20 2 -28 -1z"/>
</g>
</svg>
